<svg xmlns="http://www.w3.org/2000/svg" viewBox="0 0 76 22">
  <path
    d="M4.438 20.972V8.697l9.659 12.275h3.824V1.12h-4.466v12.247L3.825 1.12H0v19.853h4.438zm22.35.308c1.87 0 3.238-.95 3.797-1.706v1.398H34.8V6.991h-4.215v1.398c-.559-.755-1.927-1.706-3.797-1.706-3.657 0-6.476 3.328-6.476 7.299 0 3.97 2.82 7.298 6.476 7.298zm.95-3.831c-1.899 0-3.183-1.454-3.183-3.467 0-2.014 1.284-3.468 3.182-3.468s3.183 1.454 3.183 3.468c0 2.013-1.285 3.467-3.183 3.467zm18.301 3.831c3.657 0 6.477-3.328 6.477-7.298 0-3.971-2.82-7.299-6.477-7.299-1.87 0-3.238.951-3.796 1.706V0h-4.215v20.972h4.215v-1.398c.558.755 1.926 1.706 3.796 1.706zm-.949-3.831c-1.898 0-3.182-1.454-3.182-3.467 0-2.014 1.284-3.468 3.182-3.468s3.183 1.454 3.183 3.468c0 2.013-1.285 3.467-3.183 3.467zm14.032 3.523V0h-4.216v20.972h4.216zm8.867.308c1.87 0 3.238-.95 3.796-1.706v1.398H76V6.991h-4.215v1.398c-.558-.755-1.926-1.706-3.796-1.706-3.657 0-6.477 3.328-6.477 7.299 0 3.97 2.82 7.298 6.477 7.298zm.949-3.831c-1.899 0-3.183-1.454-3.183-3.467 0-2.014 1.284-3.468 3.183-3.468 1.898 0 3.182 1.454 3.182 3.468 0 2.013-1.284 3.467-3.182 3.467z"
    fill="black"
  />
</svg>
